<?xml version="1.0" standalone="no"?>
<!DOCTYPE svg PUBLIC "-//W3C//DTD SVG 20010904//EN"
 "http://www.w3.org/TR/2001/REC-SVG-20010904/DTD/svg10.dtd">
<svg version="1.0" xmlns="http://www.w3.org/2000/svg"
 width="840.000000pt" height="669.000000pt" viewBox="0 0 840.000000 669.000000"
 preserveAspectRatio="xMidYMid meet">

<g transform="translate(0.000000,669.000000) scale(0.100000,-0.100000)"
fill="#000000" stroke="none">
<path d="M0 3345 l0 -3345 4200 0 4200 0 0 3345 0 3345 -4200 0 -4200 0 0
-3345z m4624 1645 c58 -52 76 -101 76 -216 0 -117 16 -160 78 -216 52 -47 95
-58 207 -55 79 2 96 -1 140 -23 144 -72 174 -261 60 -375 -97 -97 -245 -94
-342 7 -52 54 -64 94 -61 211 1 87 -1 108 -19 142 -50 95 -116 128 -252 126
-71 -1 -103 3 -135 17 -44 20 -106 78 -106 99 0 7 52 65 115 128 63 63 115
120 115 125 0 6 7 10 15 10 8 0 15 4 15 9 0 14 30 41 45 41 8 0 30 -14 49 -30z
m450 -44 c124 -52 103 -237 -30 -262 -78 -15 -143 28 -165 108 -15 57 16 119
74 147 49 25 75 26 121 7z m-762 -457 c269 -56 452 -348 383 -613 -52 -200
-206 -342 -412 -382 -157 -30 -328 25 -448 144 -102 101 -151 233 -142 382 2
47 11 99 18 117 8 18 80 100 161 183 135 138 151 151 200 164 65 18 169 20
240 5z m1169 -371 c49 -27 73 -76 66 -134 -9 -80 -62 -127 -145 -127 -100 0
-171 115 -125 203 39 76 128 101 204 58z m-373 -174 c89 -37 145 -124 146
-224 1 -95 -43 -167 -129 -213 -34 -19 -54 -22 -135 -20 -113 3 -153 -6 -203
-48 -65 -54 -81 -98 -79 -218 3 -123 -14 -169 -81 -226 -104 -90 -252 -78
-341 27 -103 119 -60 305 83 367 41 17 69 21 145 20 111 -1 163 17 214 75 48
55 55 79 53 193 -2 112 8 146 55 202 60 71 186 101 272 65z m-1548 -85 c37
-51 51 -115 44 -195 -8 -85 11 -138 72 -197 52 -50 110 -67 211 -60 67 5 86 2
131 -17 90 -39 142 -118 142 -217 0 -244 -322 -328 -447 -116 -26 45 -28 55
-28 163 0 106 -2 118 -27 160 -51 87 -107 113 -241 111 -128 -1 -176 18 -228
91 l-19 27 154 156 155 156 30 -15 c16 -9 39 -30 51 -47z m-148 -549 c20 -6
50 -26 67 -45 41 -47 48 -91 23 -147 -45 -102 -198 -114 -246 -19 -42 81 -18
163 57 200 48 24 50 24 99 11z m1676 -10 c51 -32 74 -76 69 -138 -6 -84 -71
-139 -155 -129 -182 20 -166 285 18 287 19 0 50 -9 68 -20z m-828 -388 c127
-64 95 -241 -49 -268 -45 -9 -114 25 -142 68 -28 46 -22 127 12 164 49 53 118
67 179 36z m-1090 -757 c24 -25 49 -45 55 -45 7 0 31 21 54 46 34 35 49 44 70
42 25 -3 26 -6 29 -73 2 -38 0 -107 -3 -152 -6 -79 -8 -83 -31 -83 -24 0 -24
1 -24 105 0 58 -4 105 -8 105 -4 0 -23 -16 -42 -35 -19 -19 -39 -35 -45 -35
-6 0 -26 16 -45 35 -54 56 -60 50 -60 -70 l0 -105 -25 0 -25 0 0 155 0 155 28
0 c20 0 41 -13 72 -45z m450 -67 c0 -139 6 -148 95 -148 91 0 94 4 97 140 l3
115 28 3 27 3 0 -120 c0 -119 0 -121 -29 -153 -28 -31 -34 -33 -109 -36 -144
-7 -172 26 -172 198 l0 110 30 0 30 0 0 -112z m541 65 l50 -46 47 46 c46 45
92 62 106 38 4 -5 3 -75 0 -155 -7 -145 -7 -146 -31 -146 -23 0 -23 2 -23 105
0 58 -3 105 -6 105 -3 0 -27 -18 -52 -40 l-46 -41 -41 41 c-22 22 -44 40 -48
40 -4 0 -7 -47 -7 -105 0 -104 0 -105 -24 -105 -20 0 -24 6 -30 46 -8 62 -8
249 1 257 18 19 57 4 104 -40z m650 24 c50 -33 62 -91 29 -144 -23 -38 -67
-53 -162 -53 l-67 0 -7 -45 c-5 -39 -10 -45 -30 -45 l-24 0 0 156 0 156 118
-4 c90 -3 123 -7 143 -21z m458 12 c26 -9 61 -51 61 -74 0 -12 -59 -4 -70 10
-10 12 -31 15 -94 13 l-81 -3 0 -30 0 -30 96 -5 c107 -6 133 -18 144 -70 8
-37 -18 -88 -51 -100 -14 -6 -64 -10 -110 -10 -81 0 -87 2 -115 29 -16 16 -29
34 -29 40 0 16 49 13 66 -4 11 -11 37 -15 88 -15 78 0 101 12 94 47 -3 15 -17
19 -93 24 -95 6 -128 17 -145 49 -24 45 -2 112 44 130 31 13 158 12 195 -1z"/>
<path d="M3990 4025 l0 -205 45 0 45 0 0 130 c0 72 4 130 8 130 4 0 28 -20 52
-45 24 -25 49 -45 55 -45 6 0 31 20 55 45 24 25 48 45 52 45 4 0 8 -58 8 -130
l0 -130 45 0 45 0 0 205 0 205 -48 0 c-45 0 -51 -4 -102 -55 l-54 -55 -56 55
c-52 51 -59 55 -103 55 l-47 0 0 -205z"/>
<path d="M4610 2090 l0 -51 87 3 c86 3 88 3 98 32 8 24 6 31 -14 47 -18 15
-39 19 -97 19 l-74 0 0 -50z"/>
</g>
</svg>
